<?xml version="1.0" encoding="utf-8"?>
<!-- Generator: Adobe Illustrator 18.0.0, SVG Export Plug-In . SVG Version: 6.00 Build 0)  -->
<!DOCTYPE svg PUBLIC "-//W3C//DTD SVG 1.1//EN" "http://www.w3.org/Graphics/SVG/1.1/DTD/svg11.dtd">
<svg version="1.1" id="Layer_1" xmlns="http://www.w3.org/2000/svg" xmlns:xlink="http://www.w3.org/1999/xlink" x="0px" y="0px"
	 width="114px" height="136px" viewBox="69 -20 114 136" enable-background="new 69 -20 114 136" xml:space="preserve">
<g>
	<path fill="#06446A" d="M72.6,53.1H82c5.2,0,7.2,3.3,7.2,6.7c0,3.3-2,6.7-7.2,6.7h-4.8V74h-4.6V53.1z M77.2,62.9h3.6
		c2.2,0,4-0.5,4-3.1s-1.9-3.1-4-3.1h-3.6V62.9z"/>
	<path fill="#06446A" d="M95.7,53.1h4.7l7.8,20.8h-4.8l-1.6-4.6H94l-1.7,4.6h-4.6L95.7,53.1z M95.2,65.9h5.4L98,58.2h-0.1L95.2,65.9
		z"/>
	<path fill="#06446A" d="M109.9,53.1h6.5l4.9,14.3h0.1l4.6-14.3h6.5v20.8h-4.3V59.2H128l-5.1,14.7h-3.5l-5.1-14.6h-0.1v14.6h-4.3
		C109.9,73.9,109.9,53.1,109.9,53.1z"/>
	<path fill="#06446A" d="M136.4,53.1h15.5V57h-11v4.5h10.1V65h-10.1v5.1h11.2v3.8h-15.8V53.1z"/>
	<path fill="#06446A" d="M155.3,53.1h9c5.4,0,9.5,3.3,9.5,10.3c0,6.1-3.1,10.5-9.5,10.5h-9V53.1z M159.9,70.1h4.1
		c2.6,0,5.2-1.7,5.2-6.2c0-4.2-1.4-6.9-6-6.9h-3.3V70.1z"/>
</g>
<g>
	<g>
		<polygon fill="#06446A" points="141.3,-14 139.7,-16.9 108.7,-16.9 107,-14 		"/>
	</g>
	<polygon fill="#06446A" points="122.4,-4.6 109.6,-4.6 108.4,-6.6 102.8,-6.6 101,-3.6 122.4,-3.6 	"/>
	<polygon fill="#06446A" points="126.9,-3.6 147.3,-3.6 145.6,-6.6 140.2,-6.6 139.1,-4.6 126.9,-4.6 	"/>
	<polygon fill="#06446A" points="122.4,0.5 112.2,0.5 111,-1.5 99.9,-1.5 98.1,1.5 122.4,1.5 	"/>
	<polygon fill="#06446A" points="126.9,1.5 150.3,1.5 148.6,-1.5 137.3,-1.5 136.2,0.5 126.9,0.5 	"/>
	<polygon fill="#06446A" points="122.4,5.6 104.1,5.6 102.9,3.6 96.9,3.6 95.2,6.6 122.4,6.6 	"/>
	<polygon fill="#06446A" points="126.9,6.6 153.3,6.6 151.6,3.6 146.1,3.6 145,5.6 126.9,5.6 	"/>
	<polygon fill="#06446A" points="122.4,10.7 105.9,10.7 104.7,8.7 93.9,8.7 92.2,11.7 122.4,11.7 	"/>
	<polygon fill="#06446A" points="126.9,11.7 156.3,11.7 154.6,8.7 144.2,8.7 143.1,10.7 126.9,10.7 	"/>
	<g>
		<polygon fill="#06446A" points="141.3,39.8 139.7,42.9 108.7,42.9 107,39.8 		"/>
	</g>
	<polygon fill="#06446A" points="122.4,16.2 107.8,16.2 106.9,14.2 92.7,14.2 94.5,17.2 122.4,17.2 	"/>
	<polygon fill="#06446A" points="126.9,17.2 154.7,17.2 156.3,14.2 142.4,14.2 141.3,16.2 126.9,16.2 	"/>
	<polygon fill="#06446A" points="122.4,21.2 109.5,21.2 108.7,19.3 95.6,19.3 97.4,22.3 122.4,22.3 	"/>
	<polygon fill="#06446A" points="126.9,22.3 151.9,22.3 153.5,19.3 140.6,19.3 139.5,21.2 126.9,21.2 	"/>
	<polygon fill="#06446A" points="122.4,26.4 111.4,26.4 110.5,24.4 98.5,24.4 100.3,27.4 122.4,27.4 	"/>
	<polygon fill="#06446A" points="126.9,27.4 148.8,27.4 150.5,24.4 138.9,24.4 137.8,26.4 126.9,26.4 	"/>
	<polygon fill="#06446A" points="135.9,31.5 113.4,31.5 112.5,29.5 101.2,29.5 103,32.5 145.7,32.5 147.3,29.5 137,29.5 	"/>
	<polygon fill="#06446A" points="134.2,36.6 115.1,36.6 114.2,34.6 104,34.6 105.9,37.6 142.8,37.6 144.4,34.6 135.3,34.6 	"/>
	<path fill="#06446A" d="M126.9-6.5c0,0,8.1-0.3,7.7,2.7c-0.4,2.2-2.2,2.6-2.2,2.6s-4.8,0.4-5.5-0.7V-6.5z M129.6-5.1l1,0.6
		c0,0,1.1,0.6,1.4-0.2C132.2-5.3,129.6-5.1,129.6-5.1L129.6-5.1z"/>
	<path fill="#06446A" d="M126.9-8.7v-1c0-0.2-0.2-0.5-0.5-0.5h-3.5c-0.3,0-0.5,0.2-0.5,0.5v1h-0.1H104l1.8-2.9h36.8l1.8,2.9h-17.3
		H126.9z"/>
	<path fill="#06446A" d="M126.7,17.3l-4-2.3l-0.2-0.2c-5.3-3-5.3-3.9-5.3-3.9c-0.6-3.1,3.6-4.1,3.6-4.1c0.7-0.3,1-0.4,1-0.4l0.6-0.3
		v2.6l4.2,2.7l0.3,0.2l4.1,2.6c0,0,2.4,2.2,0.2,3.9l-4.4,2.3v-2.9L126.7,17.3z"/>
	<path fill="#06446A" d="M126.3,31.5l-3.8,2.2c0,0-3.2,1-4.2-0.4l-0.8-0.8c0,0,4-2.7,5-3.3v2.3h3.7H126.3z"/>
	<path fill="#06446A" d="M126.9,31.1v-2.9l-0.2-0.1l-4.2-2.6l-0.2-0.1c-5.4-2.6-5.3-3.9-5.3-3.9c-0.6-3.1,4-4.3,4-4.3
		c0.4-0.1,0.6-0.2,0.6-0.2l0.6-0.4v2.9l0.2,0.1l4.1,2.6l0.2,0.1L131,25c0,0,2.2,2-0.1,3.8L126.9,31.1L126.9,31.1z"/>
	<path fill="#06446A" d="M126.6,0.4l-4-2.6l-0.2-0.1v-2.6l-1,0.5c0,0-1.4,0.6-2,0.9c0,0-2.7,0.8-2.2,3.5c0,0-0.1,0.8,5.3,3.8
		l0.2,0.2l4.1,2.5l0.2,0.2v2.8l4.4-2.3c2.2-1.8-0.2-3.9-0.2-3.9l-4.1-2.6L126.6,0.4z"/>
</g>
<path fill="#06446A" d="M145.7,42.8c0-1.8,1.4-3.2,3.1-3.2s3.2,1.4,3.2,3.2c0,1.8-1.4,3.2-3.2,3.2C147.1,46,145.7,44.5,145.7,42.8z
	 M151.6,42.8c0-1.6-1.2-2.9-2.8-2.9s-2.8,1.3-2.8,2.9c0,1.5,1.3,2.9,2.8,2.9S151.6,44.4,151.6,42.8z M147.3,40.8h1.5
	c0.3,0,0.8,0,1,0.2c0.2,0.2,0.4,0.5,0.4,0.7c0,0.6-0.5,1-1,1c0.4,0.1,0.6,0.6,0.8,1c0.1,0.2,0.2,0.5,0.3,0.6s0.2,0.2,0.3,0.2v0.2
	h-0.2c-0.2,0-0.5,0-0.6-0.1c-0.2-0.2-0.3-0.5-0.4-0.7c-0.2-0.6-0.2-0.9-0.9-0.9h-0.2v1c0,0.2-0.1,0.5,0.2,0.5h0.2v0.2h-1.4v-0.2h0.2
	c0.2,0,0.2-0.1,0.2-0.2v-2.9c0-0.2-0.1-0.2-0.2-0.2h-0.2V40.8z M148.5,42.5c0.6,0,1.1-0.1,1.1-0.8c0-0.2-0.1-0.5-0.2-0.6
	c-0.2-0.2-0.4-0.2-0.6-0.2c-0.4,0-0.5,0-0.5,0.4v1.2H148.5z"/>
<path fill="#06446A" d="M173.7,74.6c0-1.8,1.4-3.2,3.1-3.2c1.8,0,3.2,1.4,3.2,3.2c0,1.8-1.4,3.2-3.2,3.2
	C175.1,77.8,173.7,76.3,173.7,74.6z M179.7,74.6c0-1.6-1.3-2.9-2.8-2.9c-1.6,0-2.8,1.3-2.8,2.9c0,1.5,1.3,2.9,2.8,2.9
	S179.7,76.2,179.7,74.6z M175.4,72.6h1.5c0.3,0,0.8,0,1,0.2c0.2,0.2,0.4,0.5,0.4,0.7c0,0.6-0.5,1-1,1c0.4,0.1,0.6,0.6,0.8,1
	c0.1,0.2,0.2,0.5,0.3,0.6c0.1,0.1,0.2,0.2,0.3,0.2v0.2h-0.2c-0.2,0-0.5,0-0.6-0.1c-0.2-0.2-0.3-0.5-0.4-0.7
	c-0.2-0.6-0.2-0.9-0.9-0.9h-0.2v1c0,0.1,0,0.5,0.2,0.5h0.2v0.2h-1.4v-0.2h0.2c0.2,0,0.2-0.1,0.2-0.2V73c0-0.2-0.1-0.2-0.2-0.2h-0.2
	L175.4,72.6L175.4,72.6z M176.5,74.3c0.6,0,1.2-0.1,1.2-0.8c0-0.2-0.1-0.5-0.3-0.6c-0.2-0.2-0.4-0.2-0.6-0.2c-0.4,0-0.5,0-0.5,0.4
	v1.2H176.5z"/>
<g>
	<path fill="#06446A" d="M72.3,92.9v-9.1h3.4c0.6,0,1,0,1.4,0.1c0.5,0.1,0.8,0.2,1.1,0.4c0.3,0.2,0.6,0.5,0.7,0.9
		c0.2,0.4,0.2,0.8,0.2,1.3c0,0.8-0.2,1.4-0.7,2c-0.5,0.6-1.4,0.8-2.7,0.8h-2.3v3.7L72.3,92.9L72.3,92.9z M73.5,88.1h2.4
		c0.8,0,1.4-0.2,1.7-0.4c0.3-0.3,0.5-0.7,0.5-1.2c0-0.4-0.1-0.7-0.3-1c-0.2-0.2-0.5-0.5-0.8-0.6c-0.2-0.1-0.6-0.1-1.1-0.1h-2.3
		C73.5,84.9,73.5,88.1,73.5,88.1z"/>
	<path fill="#06446A" d="M85.4,90.8l1.2,0.2c-0.2,0.6-0.6,1.2-1,1.6c-0.5,0.4-1.1,0.6-1.9,0.6c-1,0-1.8-0.3-2.3-0.9
		c-0.6-0.6-0.9-1.4-0.9-2.5c0-1.1,0.3-2,0.9-2.6c0.6-0.6,1.3-1,2.2-1c0.9,0,1.6,0.3,2.2,0.9c0.6,0.6,0.9,1.4,0.9,2.6
		c0,0.1,0,0.2,0,0.3h-4.9c0.1,0.7,0.2,1.3,0.6,1.7c0.4,0.4,0.8,0.6,1.4,0.6c0.4,0,0.8-0.1,1-0.3C85,91.6,85.2,91.2,85.4,90.8z
		 M81.7,89h3.7c-0.1-0.6-0.2-1-0.4-1.3c-0.3-0.4-0.8-0.6-1.4-0.6c-0.5,0-1,0.2-1.3,0.5C82,88,81.8,88.4,81.7,89z"/>
	<path fill="#06446A" d="M88.2,92.9v-6.6h1v1c0.5-0.7,1.2-1.1,2.1-1.1c0.4,0,0.8,0.1,1.1,0.2s0.6,0.3,0.7,0.6
		c0.2,0.2,0.3,0.5,0.3,0.8c0.1,0.2,0.1,0.6,0.1,1.1v4.1h-1.1v-4c0-0.5-0.1-0.8-0.2-1c-0.1-0.2-0.2-0.4-0.5-0.6
		c-0.2-0.2-0.5-0.2-0.8-0.2c-0.5,0-0.9,0.2-1.2,0.5c-0.3,0.3-0.6,0.9-0.6,1.8v3.6H88.2z"/>
	<path fill="#06446A" d="M95.6,92.9v-6.6h1v1c0.5-0.7,1.2-1.1,2.1-1.1c0.4,0,0.8,0.1,1.1,0.2s0.6,0.3,0.7,0.6
		c0.2,0.2,0.3,0.5,0.3,0.8c0.1,0.2,0.1,0.6,0.1,1.1v4.1h-1.1v-4c0-0.5-0.1-0.8-0.2-1c-0.1-0.2-0.2-0.4-0.5-0.6
		c-0.2-0.2-0.5-0.2-0.8-0.2c-0.5,0-0.9,0.2-1.2,0.5c-0.3,0.3-0.6,0.9-0.6,1.8v3.6H95.6z"/>
	<path fill="#06446A" d="M102.4,90.9l1.1-0.2c0.1,0.5,0.2,0.8,0.6,1s0.7,0.3,1.2,0.3s0.9-0.1,1.1-0.3c0.2-0.2,0.4-0.5,0.4-0.7
		c0-0.2-0.1-0.5-0.3-0.6c-0.2-0.1-0.6-0.2-1.1-0.4c-0.8-0.2-1.4-0.4-1.7-0.6s-0.6-0.4-0.7-0.6c-0.2-0.2-0.2-0.6-0.2-0.9
		c0-0.3,0.1-0.6,0.2-0.8c0.2-0.2,0.3-0.5,0.6-0.6c0.2-0.2,0.4-0.2,0.7-0.3s0.6-0.2,1-0.2c0.5,0,1,0.1,1.4,0.2s0.7,0.3,0.9,0.6
		c0.2,0.2,0.3,0.6,0.4,1l-1.1,0.2c-0.1-0.3-0.2-0.6-0.4-0.8s-0.6-0.3-1-0.3c-0.5,0-0.9,0.1-1.1,0.2c-0.2,0.2-0.3,0.4-0.3,0.6
		s0.1,0.2,0.2,0.4s0.2,0.2,0.4,0.3c0.1,0.1,0.5,0.2,1,0.3c0.8,0.2,1.4,0.4,1.7,0.6c0.3,0.2,0.6,0.3,0.7,0.6c0.2,0.2,0.2,0.6,0.2,1
		s-0.1,0.7-0.3,1c-0.2,0.3-0.6,0.6-1,0.8c-0.4,0.2-0.9,0.2-1.4,0.2c-0.9,0-1.5-0.2-2-0.6C102.8,92.2,102.6,91.6,102.4,90.9z"/>
	<path fill="#06446A" d="M109.5,95.5l-0.2-1c0.2,0.1,0.5,0.1,0.6,0.1c0.2,0,0.5-0.1,0.6-0.2c0.2-0.1,0.2-0.2,0.4-0.3
		c0.1-0.1,0.2-0.4,0.3-0.8c0-0.1,0.1-0.2,0.1-0.2l-2.5-6.6h1.3l1.4,3.8c0.2,0.5,0.3,1,0.5,1.5c0.2-0.5,0.3-1,0.5-1.5l1.4-3.8h1.1
		l-2.5,6.7c-0.2,0.7-0.5,1.2-0.6,1.5c-0.2,0.4-0.4,0.6-0.7,0.8c-0.2,0.2-0.6,0.2-1,0.2C110,95.6,109.8,95.5,109.5,95.5z"/>
	<path fill="#06446A" d="M116.1,92.9v-9.1h1.1v9.1H116.1z"/>
	<path fill="#06446A" d="M121.1,92.9l-2.5-6.6h1.2l1.4,4c0.2,0.4,0.3,0.9,0.4,1.4c0.1-0.3,0.2-0.8,0.4-1.3l1.4-4.1h1.1l-2.5,6.6
		C122.1,92.9,121.1,92.9,121.1,92.9z"/>
	<path fill="#06446A" d="M130.2,92.1c-0.4,0.3-0.8,0.6-1.2,0.7c-0.4,0.2-0.8,0.2-1.2,0.2c-0.7,0-1.3-0.2-1.7-0.6
		c-0.4-0.3-0.6-0.8-0.6-1.4c0-0.3,0.1-0.6,0.2-0.9c0.2-0.2,0.3-0.5,0.6-0.6c0.2-0.2,0.5-0.3,0.8-0.4c0.2-0.1,0.6-0.1,1-0.2
		c0.9-0.1,1.6-0.2,2-0.4c0-0.2,0-0.2,0-0.3c0-0.5-0.1-0.8-0.3-1c-0.3-0.2-0.7-0.4-1.3-0.4c-0.6,0-0.9,0.1-1.2,0.2
		c-0.2,0.2-0.4,0.5-0.6,1l-1.1-0.2c0.1-0.5,0.2-0.9,0.5-1.1c0.2-0.3,0.6-0.5,1-0.6c0.4-0.2,1-0.2,1.5-0.2s1,0.1,1.4,0.2
		c0.3,0.2,0.6,0.3,0.8,0.5c0.2,0.2,0.3,0.5,0.3,0.8c0,0.2,0.1,0.6,0.1,1V90c0,1,0,1.7,0.1,2c0.1,0.2,0.2,0.6,0.3,0.8h-1.2
		C130.3,92.7,130.2,92.4,130.2,92.1z M130,89.6c-0.4,0.2-1,0.3-1.8,0.4c-0.5,0.1-0.8,0.2-1,0.2s-0.3,0.2-0.5,0.4
		c-0.1,0.2-0.2,0.3-0.2,0.6c0,0.3,0.1,0.6,0.3,0.7c0.2,0.2,0.6,0.3,1,0.3s0.8-0.1,1.1-0.3c0.3-0.2,0.6-0.5,0.7-0.8
		c0.2-0.2,0.2-0.6,0.2-1.1v-0.4H130z"/>
	<path fill="#06446A" d="M133.2,92.9v-6.6h1v1c0.5-0.7,1.2-1.1,2.1-1.1c0.4,0,0.8,0.1,1.1,0.2c0.3,0.2,0.6,0.3,0.7,0.6
		c0.2,0.2,0.3,0.5,0.3,0.8c0.1,0.2,0.1,0.6,0.1,1.1v4.1h-1.1v-4c0-0.5-0.1-0.8-0.2-1c-0.1-0.2-0.2-0.4-0.5-0.6
		c-0.2-0.2-0.5-0.2-0.8-0.2c-0.5,0-0.9,0.2-1.2,0.5c-0.3,0.3-0.6,0.9-0.6,1.8v3.6H133.2z"/>
	<path fill="#06446A" d="M140.5,85.1v-1.3h1.1v1.3H140.5z M140.5,92.9v-6.6h1.1v6.6H140.5z"/>
	<path fill="#06446A" d="M147.9,92.1c-0.4,0.3-0.8,0.6-1.2,0.7c-0.4,0.2-0.8,0.2-1.2,0.2c-0.7,0-1.3-0.2-1.7-0.6
		c-0.4-0.3-0.6-0.8-0.6-1.4c0-0.3,0.1-0.6,0.2-0.9c0.2-0.2,0.3-0.5,0.6-0.6c0.2-0.2,0.5-0.3,0.8-0.4c0.2-0.1,0.6-0.1,1-0.2
		c0.9-0.1,1.6-0.2,2-0.4c0-0.2,0-0.2,0-0.3c0-0.5-0.1-0.8-0.3-1c-0.3-0.2-0.7-0.4-1.3-0.4c-0.6,0-0.9,0.1-1.2,0.2
		c-0.2,0.2-0.4,0.5-0.6,1l-1.1-0.2c0.1-0.5,0.2-0.9,0.5-1.1c0.2-0.3,0.6-0.5,1-0.6c0.4-0.2,1-0.2,1.5-0.2c0.6,0,1,0.1,1.4,0.2
		c0.3,0.2,0.6,0.3,0.8,0.5c0.2,0.2,0.3,0.5,0.3,0.8c0,0.2,0.1,0.6,0.1,1V90c0,1,0,1.7,0.1,2c0.1,0.2,0.2,0.6,0.3,0.8H148
		C148,92.7,148,92.4,147.9,92.1z M147.8,89.6c-0.4,0.2-1,0.3-1.8,0.4c-0.5,0.1-0.8,0.2-1,0.2s-0.3,0.2-0.5,0.4
		c-0.1,0.2-0.2,0.3-0.2,0.6c0,0.3,0.1,0.6,0.3,0.7c0.2,0.2,0.6,0.3,1,0.3c0.4,0,0.8-0.1,1.1-0.3c0.3-0.2,0.6-0.5,0.7-0.8
		c0.2-0.2,0.2-0.6,0.2-1.1v-0.4H147.8z"/>
	<path fill="#06446A" d="M72.5,109.5V97.6h3.6l2.2,8.1l2.2-8.1h3.6v11.9h-2.2v-9.4l-2.4,9.4H77l-2.4-9.4v9.4H72.5z"/>
	<path fill="#06446A" d="M90.1,106.8l2.3,0.4c-0.3,0.8-0.7,1.4-1.4,1.9c-0.6,0.4-1.4,0.6-2.4,0.6c-1.5,0-2.6-0.5-3.3-1.4
		c-0.6-0.8-0.9-1.8-0.9-2.9c0-1.4,0.4-2.6,1.1-3.3c0.7-0.8,1.7-1.2,2.9-1.2c1.3,0,2.3,0.4,3,1.3c0.7,0.9,1.1,2.2,1,3.9h-5.7
		c0,0.6,0.2,1.2,0.6,1.6s0.8,0.6,1.3,0.6c0.3,0,0.6-0.1,0.9-0.3C89.8,107.5,90,107.2,90.1,106.8z M90.2,104.5c0-0.6-0.2-1.2-0.5-1.5
		s-0.7-0.5-1.2-0.5c-0.5,0-0.9,0.2-1.2,0.6s-0.5,0.9-0.5,1.5L90.2,104.5L90.2,104.5z"/>
	<path fill="#06446A" d="M101,109.5h-2.1v-1.3c-0.3,0.5-0.8,0.9-1.3,1.1c-0.5,0.2-1,0.4-1.4,0.4c-1,0-1.8-0.4-2.6-1.2
		c-0.7-0.8-1-1.9-1-3.3c0-1.4,0.3-2.6,1-3.3c0.7-0.8,1.6-1.1,2.6-1.1c1,0,1.8,0.4,2.5,1.2v-4.3h2.3L101,109.5L101,109.5z M94.9,105
		c0,1,0.2,1.6,0.4,2c0.4,0.6,0.9,0.9,1.5,0.9c0.6,0,1-0.2,1.4-0.6c0.4-0.5,0.6-1.1,0.6-2c0-1-0.2-1.7-0.6-2.2
		c-0.3-0.4-0.8-0.6-1.4-0.6c-0.6,0-1,0.2-1.4,0.6S94.9,104.2,94.9,105z"/>
	<path fill="#06446A" d="M102,99.8v-2.1h2.3v2.1H102z M102,109.5v-8.6h2.3v8.6H102z"/>
	<path fill="#06446A" d="M112.9,103.4l-2.2,0.4c-0.1-0.5-0.2-0.8-0.5-1c-0.2-0.2-0.6-0.3-1-0.3c-0.6,0-1,0.2-1.4,0.6
		c-0.3,0.4-0.5,1-0.5,2c0,1,0.2,1.8,0.5,2.2s0.8,0.6,1.4,0.6c0.4,0,0.8-0.2,1-0.4s0.5-0.6,0.6-1.3l2.2,0.4c-0.2,1-0.7,1.8-1.4,2.3
		c-0.6,0.6-1.5,0.8-2.6,0.8c-1.3,0-2.2-0.4-3-1.2c-0.7-0.8-1.1-1.9-1.1-3.3c0-1.4,0.4-2.6,1.1-3.3c0.7-0.8,1.8-1.2,3-1.2
		c1,0,1.9,0.2,2.5,0.7C112.2,101.8,112.6,102.6,112.9,103.4z"/>
	<path fill="#06446A" d="M115.1,103.5l-2.1-0.4c0.2-0.8,0.6-1.4,1.2-1.8c0.6-0.4,1.4-0.6,2.6-0.6c1,0,1.8,0.2,2.3,0.4
		c0.5,0.2,0.9,0.6,1,1c0.2,0.4,0.3,1,0.3,2.1v2.6c0,0.8,0,1.4,0.1,1.7c0.1,0.4,0.2,0.7,0.4,1.2h-2.2c-0.1-0.2-0.2-0.4-0.2-0.6
		c0-0.2-0.1-0.2-0.1-0.2c-0.4,0.4-0.8,0.6-1.3,0.9c-0.5,0.2-1,0.3-1.4,0.3c-0.9,0-1.6-0.2-2.1-0.7c-0.5-0.5-0.8-1.1-0.8-1.8
		c0-0.5,0.1-1,0.3-1.3c0.2-0.3,0.6-0.6,1-0.9s1-0.4,1.8-0.6c1-0.2,1.8-0.4,2.2-0.6v-0.2c0-0.4-0.1-0.7-0.3-1
		c-0.2-0.2-0.6-0.3-1.2-0.3c-0.4,0-0.7,0.1-1,0.2C115.4,102.9,115.3,103.1,115.1,103.5z M118.1,105.3c-0.3,0.1-0.7,0.2-1.4,0.3
		c-0.6,0.2-1,0.2-1.3,0.4c-0.3,0.2-0.5,0.5-0.5,0.8s0.1,0.6,0.3,0.8s0.6,0.3,0.9,0.3c0.4,0,0.8-0.2,1.2-0.4c0.2-0.2,0.5-0.5,0.6-0.7
		c0.1-0.2,0.1-0.6,0.1-1.1L118.1,105.3L118.1,105.3z"/>
	<path fill="#06446A" d="M121.4,109.5V97.6h2.2v11.9H121.4z"/>
	<path fill="#06446A" d="M127.5,105.7l2.3-0.2c0.2,0.8,0.4,1.4,0.9,1.8c0.4,0.4,1,0.6,1.8,0.6c0.8,0,1.4-0.2,1.8-0.5
		c0.4-0.3,0.6-0.7,0.6-1.1c0-0.3-0.1-0.6-0.2-0.7s-0.5-0.4-0.9-0.5c-0.3-0.1-1-0.2-1.9-0.6c-1.3-0.3-2.2-0.7-2.7-1.2
		c-0.7-0.6-1.1-1.4-1.1-2.4c0-0.6,0.2-1.2,0.5-1.7c0.3-0.6,0.9-1,1.5-1.2s1.4-0.4,2.3-0.4c1.5,0,2.6,0.3,3.3,1
		c0.7,0.6,1.1,1.5,1.2,2.6l-2.4,0.1c-0.1-0.6-0.3-1-0.6-1.4c-0.3-0.2-0.9-0.4-1.5-0.4c-0.7,0-1.3,0.2-1.7,0.4
		c-0.2,0.2-0.4,0.4-0.4,0.7c0,0.3,0.2,0.6,0.3,0.7c0.3,0.2,1,0.6,2.2,0.8s2.1,0.6,2.6,0.9c0.6,0.3,1,0.7,1.3,1.2
		c0.3,0.5,0.5,1.1,0.5,1.9c0,0.7-0.2,1.4-0.6,1.9c-0.4,0.6-0.9,1-1.6,1.4c-0.7,0.3-1.6,0.4-2.6,0.4c-1.5,0-2.6-0.3-3.4-1
		C128.2,108,127.7,106.9,127.5,105.7z"/>
	<path fill="#06446A" d="M137.4,105.1c0-0.8,0.2-1.5,0.6-2.2c0.4-0.7,0.9-1.3,1.6-1.6c0.7-0.4,1.4-0.6,2.3-0.6
		c1.3,0,2.4,0.4,3.2,1.3c0.8,0.9,1.3,1.9,1.3,3.2c0,1.3-0.4,2.4-1.3,3.3s-1.9,1.3-3.2,1.3c-0.8,0-1.5-0.2-2.2-0.6
		c-0.7-0.3-1.3-0.9-1.7-1.6C137.7,106.9,137.4,106.1,137.4,105.1z M139.7,105.2c0,0.9,0.2,1.5,0.6,2c0.4,0.5,0.9,0.7,1.5,0.7
		c0.6,0,1.1-0.2,1.5-0.7c0.4-0.5,0.6-1.1,0.6-2s-0.2-1.5-0.6-1.9c-0.4-0.5-0.9-0.7-1.5-0.7c-0.6,0-1.1,0.2-1.5,0.7
		C140,103.7,139.7,104.4,139.7,105.2z"/>
	<path fill="#06446A" d="M154.4,103.4l-2.2,0.4c-0.1-0.5-0.2-0.8-0.5-1s-0.6-0.3-1-0.3c-0.6,0-1,0.2-1.4,0.6c-0.3,0.4-0.5,1-0.5,2
		c0,1,0.2,1.8,0.5,2.2c0.3,0.4,0.8,0.6,1.4,0.6c0.4,0,0.8-0.2,1-0.4c0.2-0.2,0.5-0.6,0.6-1.3l2.2,0.4c-0.2,1-0.7,1.8-1.4,2.3
		c-0.6,0.5-1.5,0.8-2.6,0.8c-1.3,0-2.2-0.4-3-1.2c-0.7-0.8-1.1-1.9-1.1-3.3c0-1.4,0.4-2.6,1.1-3.3s1.8-1.2,3-1.2
		c1,0,1.9,0.2,2.5,0.7C153.7,101.8,154.1,102.6,154.4,103.4z"/>
	<path fill="#06446A" d="M154.9,99.8v-2.1h2.3v2.1H154.9z M154.9,109.5v-8.6h2.3v8.6H154.9z"/>
	<path fill="#06446A" d="M163.3,106.8l2.3,0.4c-0.3,0.8-0.7,1.4-1.4,1.9c-0.6,0.4-1.4,0.6-2.4,0.6c-1.5,0-2.6-0.5-3.3-1.4
		c-0.6-0.8-0.9-1.8-0.9-2.9c0-1.4,0.4-2.6,1.1-3.3s1.7-1.2,2.9-1.2c1.3,0,2.3,0.4,3,1.3c0.7,0.9,1.1,2.2,1,3.9h-5.7
		c0,0.6,0.2,1.2,0.6,1.6s0.8,0.6,1.3,0.6c0.3,0,0.6-0.1,0.9-0.3C162.9,107.5,163.1,107.2,163.3,106.8z M163.3,104.5
		c0-0.6-0.2-1.2-0.5-1.5c-0.3-0.3-0.7-0.5-1.2-0.5s-0.9,0.2-1.2,0.6s-0.5,0.9-0.5,1.5L163.3,104.5L163.3,104.5z"/>
	<path fill="#06446A" d="M170.2,100.9v1.8h-1.6v3.5c0,0.7,0,1.1,0.1,1.2c0,0.1,0.1,0.2,0.2,0.3c0.1,0.1,0.2,0.1,0.4,0.1
		c0.2,0,0.5-0.1,1-0.2l0.2,1.8c-0.6,0.2-1.1,0.3-1.8,0.3c-0.4,0-0.8-0.1-1.1-0.2c-0.3-0.2-0.6-0.3-0.7-0.6s-0.2-0.5-0.3-0.9
		c-0.1-0.2-0.1-0.8-0.1-1.6v-3.7h-1v-1.8h1v-1.7l2.3-1.4v3H170.2z"/>
	<path fill="#06446A" d="M169.5,100.9h2.4l2.1,6.1l2-6.1h2.4l-3,8.3l-0.6,1.5c-0.2,0.5-0.4,0.9-0.6,1.1c-0.2,0.2-0.4,0.5-0.6,0.6
		c-0.2,0.2-0.6,0.3-0.9,0.4c-0.3,0.1-0.7,0.2-1.2,0.2s-0.9-0.1-1.3-0.2l-0.2-1.8c0.3,0.1,0.7,0.1,1,0.1c0.6,0,1-0.2,1.2-0.5
		c0.2-0.3,0.5-0.7,0.6-1.2L169.5,100.9z"/>
</g>
</svg>
