<?xml version="1.0" encoding="utf-8"?>
<!-- Generator: Adobe Illustrator 18.0.0, SVG Export Plug-In . SVG Version: 6.00 Build 0)  -->
<!DOCTYPE svg PUBLIC "-//W3C//DTD SVG 1.1//EN" "http://www.w3.org/Graphics/SVG/1.1/DTD/svg11.dtd">
<svg version="1.1" id="Layer_1" xmlns="http://www.w3.org/2000/svg" xmlns:xlink="http://www.w3.org/1999/xlink" x="0px" y="0px"
	 width="185px" height="87px" viewBox="0 0 185 87" enable-background="new 0 0 185 87" xml:space="preserve">
<g>
	<g>
		<path fill="#005596" d="M112.2,1C112.2,1,112.2,1,112.2,1c0.1,0,0.2,0,0.2,0L112.2,1z"/>
		<path fill="#005596" d="M112.4,1L112.4,1C112.5,1,112.5,1,112.4,1z"/>
		<path fill="#005596" d="M120.8,10.1c-0.6-0.9-1.6-1.4-2.6-1.4l-4.6,0l1.7-3.3c0.4-1,0.2-2.1-0.4-3c-0.6-0.9-1.6-1.4-2.6-1.4
			C109,1,77.3,1,77.3,1c-1.1,0-2,0.5-2.6,1.4c-0.6,0.9-0.7,2-0.4,3L76,8.7l-4.3,0c-1.1,0-2,0.5-2.6,1.4c-0.6,0.9-0.7,2-0.4,3
			l12.9,35.7c0.5,1.3,1.7,2.1,3,2.1h20.7c1.4,0,2.6-0.9,3-2.1l12.9-35.7C121.6,12.1,121.4,10.9,120.8,10.1z M102.1,43.2H87.4
			l-10-27.8h8.3l-2.5-6.7h9.3C92.2,8.3,92,7.8,92,7.2c0-1.3,1-2.3,2.3-2.3c1.3,0,2.3,1,2.3,2.3c0,0.6-0.2,1.1-0.6,1.5h10.2l-2.4,6.7
			h8.3L102.1,43.2z"/>
	</g>
	<g>
		<path fill="#005596" d="M102.8,11.2c-0.1-0.2-1.1-1.2-1.8-1.5c-1.5-0.7-3.2-0.6-4.9-0.3v4c3.6,1.2,5,0.4,6-0.6
			C102.7,12.3,103,11.8,102.8,11.2z"/>
		<path fill="#005596" d="M92.5,11.6v-1.1c0,0,0,0-0.1,0c-1.8,0.4-4.1,1.1-4.5,3.3c-0.2,1,0.3,1.4,1.1,2.2c0.5,0.5,2,1.3,3.4,2.1
			c1.8,1,3.6,2,3.6,2.8c0,0,0,1.6,0,1.6l0.2-0.1c0,0,2.9-1.5,3.7-1.8c0.8-0.3,1.6-2.4-0.6-3.9c-1.2-0.8-2.3-1.5-3.3-2.1
			c-0.8-0.5-1.6-0.9-2.4-1.4C92.3,12.5,92.5,11.6,92.5,11.6z"/>
		<path fill="#005596" d="M92.5,20.6v-1.1c0,0,0,0-0.1,0c-1.8,0.4-4.1,1.1-4.5,3.3c-0.2,1,0.3,1.4,1.1,2.2c0.5,0.5,2,1.3,3.4,2.1
			c1.8,1,3.6,1.2,3.6,2.8c0,0.6,0,1.6,0,1.6s3.1-1.6,3.9-1.9c0.8-0.3,1.6-2.4-0.6-3.9c-1.2-0.8-2.3-1.5-3.3-2.1
			c-0.8-0.5-1.6-0.9-2.4-1.4C92.3,21.5,92.5,20.6,92.5,20.6z"/>
		<path fill="#005596" d="M92.5,29.6c0,0,0-1.1,0-1.1c-1.8,0.4-4.1,1.1-4.5,3.3c-0.2,1,0.1,1.7,1,2.3c1,0.7,2.1,1.2,3.5,2
			c1.7,0.9,3.4,1.9,3.6,2.7c0,0,0.1,0.4,0,0.6C96,39.7,95.8,40,95.5,40h-2.4c-0.1,0-0.6,0-0.6-0.6v-0.6l-4,2.2c0,0,0.1,1.5,1.4,1.8
			c0.5,0.1,2.2,0.5,5.4-1.2c1.7-0.9,4.5-2.8,4.5-3.3c0.7-1,1.1-2.5-0.3-3.4c-1.2-0.8-2.3-1.5-3.3-2.1c-0.8-0.5-1.6-0.9-2.4-1.4
			C92.3,30.5,92.5,29.6,92.5,29.6z"/>
	</g>
</g>
<path d="M10.7,80.2c0,1.6-1.3,2.7-2.9,2.7c-1.5,0-2.8-1.2-2.8-2.8c0-1.5,1.4-2.6,2.8-2.6C9.3,77.5,10.7,78.7,10.7,80.2z M6.2,80.2
	c0,1.1,0.3,2.4,1.7,2.4c1.3,0,1.6-1.3,1.6-2.4c0-1.1-0.3-2.5-1.7-2.5C6.5,77.8,6.2,79.2,6.2,80.2z"/>
<path d="M11.2,78.2v-0.3h0.9v-0.6c0-1.5,0.6-2.5,2.2-2.5c0.4,0,1.4,0.1,1.4,0.8c0,0.2-0.2,0.4-0.4,0.4c-0.2,0-0.3-0.2-0.4-0.3
	c-0.1-0.3-0.3-0.5-0.7-0.5c-0.5,0-0.8,0.1-0.9,0.6c-0.2,0.4-0.2,1-0.2,1.5v0.8h1.5v0.3h-1.5v3.2c0,0.3,0,0.6,0.1,0.7
	c0.2,0.5,0.8,0.4,1.2,0.4v0.2c-0.6,0-1.1,0-1.7,0c-0.5,0-1.1,0-1.6,0v-0.2c1-0.1,1-0.4,1-1.3v-3H11.2z"/>
<path d="M18.2,78v-0.2c0.6-0.3,1.2-0.8,1.4-1.5h0.2v1.4h1.4V78h-1.4v3.4c0,0.5,0.1,1.1,0.7,1.1c0.4,0,0.6-0.2,0.9-0.5l0.2,0.2
	c-0.2,0.6-0.8,0.8-1.4,0.8c-0.9,0-1.4-0.3-1.4-1.2V78H18.2z"/>
<path d="M23.6,78.5L23.6,78.5c0.4-0.6,1.1-1,1.9-1c1.1,0,1.8,0.5,1.8,1.7v2.2c0,0.8-0.1,1.1,0.8,1.2v0.2c-0.5,0-0.9,0-1.4,0
	c-0.4,0-0.9,0-1.3,0v-0.2c0.9-0.1,0.8-0.3,0.8-1.1v-1.8c0-0.8-0.1-1.8-1.1-1.8c-0.5,0-1.1,0.4-1.3,0.8c-0.2,0.4-0.2,0.9-0.2,1.3v1.3
	c0,0.8-0.1,1.1,0.8,1.2v0.2c-0.4,0-0.9,0-1.3,0c-0.5,0-0.9,0-1.4,0v-0.2c0.9-0.1,0.8-0.3,0.8-1.1v-4.6c0-0.3,0-1-0.1-1.3
	c-0.1-0.3-0.5-0.3-0.8-0.3V75l1.9-0.4V78.5z"/>
<path d="M33.1,81.9c-0.6,0.7-1.2,1-2.1,1c-1.5,0-2.7-1-2.7-2.6c0-1.5,1.1-2.8,2.7-2.8c1.2,0,2.3,0.7,2.3,1.9c0,0.2-0.2,0.1-0.3,0.1
	h-3.4l0,0.6c0,1.1,0.6,2.4,1.9,2.4c0.6,0,1.1-0.4,1.5-0.9L33.1,81.9z M31.6,79.2c0.2,0,0.6,0.1,0.6-0.2c0-0.7-0.4-1.2-1.2-1.2
	c-0.9,0-1.2,0.7-1.4,1.5H31.6z"/>
<g>
	<path d="M39.5,80.5c0,0.4,0,1.3,0.1,1.6c0.2,0.5,0.7,0.4,1.1,0.4v0.3c-0.6,0-1.2,0-1.9,0c-0.6,0-1.2,0-1.7,0v-0.3
		c0.4,0,0.9,0,1-0.4c0.1-0.3,0.1-1.2,0.1-1.6v-3.4c0-0.4,0-1.3-0.1-1.6c-0.1-0.4-0.6-0.4-1-0.4v-0.3c0.6,0,1.2,0,1.8,0
		c0.6,0,1.1,0,1.7,0c1.3,0,2.7,0.5,2.7,2.1c0,1.7-1.7,2.2-3.1,2.2c-0.2,0-0.7,0-0.8,0V80.5z M39.5,78.8c0.2,0,0.5,0,0.7,0
		c1.2,0,1.8-0.5,1.8-1.8c0-1.2-0.5-1.8-1.7-1.8c-0.9,0-0.8,0-0.8,0.6V78.8z"/>
	<path d="M48.4,81.9c-0.6,0.7-1.2,1-2.1,1c-1.5,0-2.7-1-2.7-2.6c0-1.5,1.1-2.8,2.7-2.8c1.2,0,2.3,0.7,2.3,1.9c0,0.2-0.2,0.1-0.3,0.1
		h-3.4l0,0.6c0,1.1,0.6,2.4,1.9,2.4c0.6,0,1.1-0.4,1.5-0.9L48.4,81.9z M46.9,79.2c0.2,0,0.6,0.1,0.6-0.2c0-0.7-0.4-1.2-1.2-1.2
		c-0.9,0-1.2,0.7-1.4,1.5H46.9z"/>
	<path d="M54.8,81.3c0,0.8-0.1,1.1,0.8,1.2v0.2c-0.4,0-0.9,0-1.3,0c-0.5,0-0.9,0-1.4,0v-0.2c0.9-0.1,0.8-0.3,0.8-1.1v-1.5
		c0-0.8,0-2-1.1-2c-0.9,0-1.5,0.7-1.5,1.6v1.9c0,0.8-0.1,1.1,0.8,1.2v0.2c-0.4,0-0.9,0-1.3,0c-0.5,0-0.9,0-1.4,0v-0.2
		c0.9-0.1,0.8-0.3,0.8-1.1V80c0-0.3,0-1.2-0.1-1.4c-0.1-0.4-0.4-0.4-0.8-0.4v-0.2c0.6-0.1,1.1-0.3,1.6-0.4l0.2,1.1h0
		c0.4-0.7,1.1-1.1,1.9-1.1c1.1,0,1.8,0.5,1.8,1.6V81.3z"/>
	<path d="M61.8,81.3c0,0.8-0.1,1.1,0.8,1.2v0.2c-0.4,0-0.9,0-1.3,0c-0.5,0-0.9,0-1.4,0v-0.2c0.9-0.1,0.8-0.3,0.8-1.1v-1.5
		c0-0.8,0-2-1.1-2c-0.9,0-1.5,0.7-1.5,1.6v1.9c0,0.8-0.1,1.1,0.8,1.2v0.2c-0.4,0-0.9,0-1.3,0c-0.5,0-0.9,0-1.4,0v-0.2
		c0.9-0.1,0.8-0.3,0.8-1.1V80c0-0.3,0-1.2-0.1-1.4c-0.1-0.4-0.4-0.4-0.8-0.4v-0.2c0.6-0.1,1.1-0.3,1.6-0.4l0.2,1.1h0
		c0.4-0.7,1.1-1.1,1.9-1.1c1.1,0,1.8,0.5,1.8,1.6V81.3z"/>
	<path d="M63.5,82.8h-0.1l0-1.7h0.2c0.2,0.8,0.6,1.5,1.5,1.5c0.5,0,1-0.3,1-0.8c0-0.7-0.7-1-1.2-1.2c-0.7-0.4-1.4-0.8-1.4-1.6
		c0-0.8,0.7-1.4,1.5-1.4c0.4,0,0.8,0.1,1.2,0.3l0.2-0.3h0.1l0,1.5h-0.2c-0.2-0.6-0.5-1.2-1.2-1.2c-0.4,0-0.8,0.2-0.8,0.7
		c0,0.6,0.7,0.8,1.1,1.1c0.8,0.4,1.6,0.7,1.6,1.8c0,1-0.8,1.6-1.7,1.6c-0.5,0-0.9-0.1-1.3-0.4L63.5,82.8z"/>
	<path d="M67.8,78.8c-0.1-0.2-0.2-0.5-0.3-0.7c-0.1-0.1-0.4-0.3-0.5-0.3v-0.2c0.4,0,0.8,0,1.2,0c0.5,0,0.9,0,1.3,0v0.2
		c-0.2,0.1-0.7,0-0.7,0.4c0,0.3,0.4,1.1,0.5,1.4l0.8,1.8l0.9-2.1c0.1-0.3,0.3-0.8,0.3-1.1c0-0.3-0.4-0.4-0.7-0.4v-0.2
		c0.3,0,0.6,0,0.9,0c0.3,0,0.5,0,0.8,0v0.2c-0.5,0-0.5,0.4-0.7,0.8L71.4,79l-2.5,5.7c-0.2,0.4-0.5,1.3-1,1.3c-0.2,0-0.4-0.1-0.4-0.3
		c0-0.5,0.7-0.5,0.9-0.9c0.2-0.3,0.4-0.8,0.5-1.1l0.5-1L67.8,78.8z"/>
	<path d="M74.1,81.3c0,0.8-0.1,1.1,0.8,1.2v0.2c-0.5,0-0.9,0-1.4,0c-0.4,0-0.9,0-1.3,0v-0.2c0.9-0.1,0.8-0.3,0.8-1.1v-4.6
		c0-0.3,0-1-0.1-1.3c-0.1-0.3-0.5-0.3-0.8-0.3V75l1.9-0.4V81.3z"/>
	<path d="M75.8,78.7c-0.2-0.5-0.3-0.8-0.8-0.9v-0.2c0.4,0,0.8,0,1.3,0c0.4,0,0.8,0,1.2,0v0.2c-0.2,0-0.7,0.1-0.7,0.4
		c0,0.2,0.1,0.4,0.2,0.6l1.2,2.9c0.2-0.6,1.2-2.8,1.2-3.4c0-0.4-0.4-0.5-0.7-0.5v-0.2c0.3,0,0.6,0,0.9,0c0.3,0,0.6,0,0.9,0v0.2
		c-0.2,0-0.3,0.1-0.5,0.3c-0.2,0.3-0.5,1.1-0.6,1.4L77.9,83h-0.2L75.8,78.7z"/>
	<path d="M83.5,79.5c0.1-0.1,0.1-0.2,0.1-0.3c0-0.8-0.1-1.4-1-1.4c-0.6,0-1.1,0-1.1,0.7c0,0.3-0.2,0.5-0.5,0.5
		c-0.3,0-0.5-0.2-0.5-0.4c0-0.9,1.6-1.1,2.2-1.1c1.3,0,1.9,0.3,1.9,1.7v2c0,0.3,0,1.2,0.4,1.2c0.2,0,0.4-0.2,0.5-0.4l0.2,0.1
		c-0.2,0.4-0.6,0.8-1.1,0.8c-0.5,0-0.9-0.4-1-0.8c-0.6,0.5-1.2,0.8-2,0.8c-0.6,0-1.2-0.4-1.2-1.1c0-1,1.1-1.4,1.9-1.8L83.5,79.5z
		 M83.6,79.8c-0.7,0.3-2.1,0.8-2.1,1.8c0,0.4,0.3,0.9,0.8,0.9c0.5,0,1-0.4,1.3-0.7V79.8z"/>
	<path d="M91.5,81.3c0,0.8-0.1,1.1,0.8,1.2v0.2c-0.4,0-0.9,0-1.3,0c-0.5,0-0.9,0-1.4,0v-0.2c0.9-0.1,0.8-0.3,0.8-1.1v-1.5
		c0-0.8,0-2-1.1-2c-0.9,0-1.5,0.7-1.5,1.6v1.9c0,0.8-0.1,1.1,0.8,1.2v0.2c-0.4,0-0.9,0-1.3,0c-0.5,0-0.9,0-1.4,0v-0.2
		c0.9-0.1,0.8-0.3,0.8-1.1V80c0-0.3,0-1.2-0.1-1.4c-0.1-0.4-0.4-0.4-0.8-0.4v-0.2c0.6-0.1,1.1-0.3,1.6-0.4l0.2,1.1h0
		c0.4-0.7,1.1-1.1,1.9-1.1c1.1,0,1.8,0.5,1.8,1.6V81.3z"/>
	<path d="M94.8,77.5v3.8c0,0.8-0.1,1.1,0.8,1.2v0.2c-0.4,0-0.8,0-1.3,0c-0.5,0-0.9,0-1.4,0v-0.2c0.9-0.1,0.8-0.3,0.8-1.1v-1.7
		c0-0.2,0-1.1,0-1.3c-0.1-0.3-0.6-0.3-0.8-0.3v-0.2L94.8,77.5z M93.5,75.4c0-0.4,0.3-0.6,0.6-0.6c0.4,0,0.6,0.3,0.6,0.6
		c0,0.3-0.3,0.6-0.6,0.6C93.8,76,93.5,75.8,93.5,75.4z"/>
	<path d="M99.3,79.5c0.1-0.1,0.1-0.2,0.1-0.3c0-0.8-0.1-1.4-1-1.4c-0.6,0-1.1,0-1.1,0.7c0,0.3-0.2,0.5-0.5,0.5
		c-0.3,0-0.5-0.2-0.5-0.4c0-0.9,1.6-1.1,2.2-1.1c1.3,0,1.9,0.3,1.9,1.7v2c0,0.3,0,1.2,0.4,1.2c0.2,0,0.4-0.2,0.5-0.4l0.2,0.1
		c-0.2,0.4-0.6,0.8-1.1,0.8c-0.5,0-0.9-0.4-1-0.8c-0.6,0.5-1.2,0.8-2,0.8c-0.6,0-1.2-0.4-1.2-1.1c0-1,1.1-1.4,1.9-1.8L99.3,79.5z
		 M99.4,79.8c-0.7,0.3-2.1,0.8-2.1,1.8c0,0.4,0.3,0.9,0.8,0.9c0.5,0,1-0.4,1.3-0.7V79.8z"/>
</g>
<g>
	<path d="M114,81.2c0,1.1,0,1.2,1.2,1.3v0.3c-0.6,0-1.2,0-1.8,0c-0.6,0-1.2,0-1.8,0v-0.3c1.1-0.1,1.2-0.2,1.2-1.3V76h0l-1.4,3.3
		c-0.5,1.1-1,2.3-1.5,3.4h-0.1l-2.9-6.8h0v5c0,0.9,0.2,1.4,1.1,1.5v0.3c-0.4,0-0.9,0-1.3,0c-0.4,0-0.8,0-1.2,0v-0.3
		c0.9,0,1.1-0.5,1.1-1.1v-5.1c0-0.3,0-0.6-0.1-0.8c-0.2-0.4-0.6-0.4-1-0.4v-0.3c0.4,0,0.8,0,1.2,0c0.4,0,0.7,0,1.1,0l2.6,6.1
		l2.5-6.1c0.4,0,0.7,0,1.1,0c0.4,0,0.8,0,1.2,0v0.3c-0.4,0-0.8,0-1,0.4c-0.1,0.3-0.1,0.9-0.1,1.3V81.2z"/>
	<path d="M120.4,81.9c-0.6,0.7-1.2,1-2.1,1c-1.5,0-2.7-1-2.7-2.6c0-1.5,1.1-2.8,2.7-2.8c1.2,0,2.3,0.7,2.3,1.9
		c0,0.2-0.2,0.1-0.3,0.1h-3.4l0,0.6c0,1.1,0.6,2.4,1.9,2.4c0.6,0,1.1-0.4,1.5-0.9L120.4,81.9z M118.9,79.2c0.2,0,0.6,0.1,0.6-0.2
		c0-0.7-0.4-1.2-1.2-1.2c-0.9,0-1.2,0.7-1.4,1.5H118.9z"/>
	<path d="M126,82.9c-0.1-0.3-0.2-0.6-0.2-0.9c-0.5,0.6-1,0.9-1.9,0.9c-1.5,0-2.5-1.2-2.5-2.6c0-1.5,1-2.8,2.5-2.8
		c0.7,0,1.3,0.2,1.7,0.7v-1.9c0-0.7,0-1.1-0.9-1.1V75l1.9-0.4v6c0,0.3,0,0.9,0.1,1.2c0.2,0.4,0.5,0.4,0.9,0.4v0.2L126,82.9z
		 M125.6,79.1c0-0.8-0.7-1.2-1.4-1.2c-1.3,0-1.6,1.3-1.6,2.4c0,1.1,0.3,2.3,1.6,2.3c1.1,0,1.4-0.8,1.4-1.8V79.1z"/>
	<path d="M129.9,77.5v3.8c0,0.8-0.1,1.1,0.8,1.2v0.2c-0.4,0-0.8,0-1.3,0c-0.5,0-0.9,0-1.4,0v-0.2c0.9-0.1,0.8-0.3,0.8-1.1v-1.7
		c0-0.2,0-1.1,0-1.3c-0.1-0.3-0.6-0.3-0.8-0.3v-0.2L129.9,77.5z M128.6,75.4c0-0.4,0.3-0.6,0.6-0.6s0.6,0.3,0.6,0.6
		c0,0.3-0.3,0.6-0.6,0.6C128.9,76,128.6,75.8,128.6,75.4z"/>
	<path d="M136,82c-0.5,0.6-1.3,0.9-2.1,0.9c-1.5,0-2.6-1.1-2.6-2.5c0-1.7,1.3-2.9,2.9-2.9c0.5,0,1.5,0.1,1.5,0.8
		c0,0.2-0.2,0.4-0.4,0.4c-0.3,0-0.4-0.2-0.5-0.5c-0.1-0.4-0.2-0.5-0.7-0.5c-1.3,0-1.7,1.3-1.7,2.4c0,1.1,0.4,2.3,1.7,2.3
		c0.6,0,1.1-0.3,1.5-0.8L136,82z"/>
	<path d="M139.7,79.5c0.1-0.1,0.1-0.2,0.1-0.3c0-0.8-0.1-1.4-1-1.4c-0.6,0-1.1,0-1.1,0.7c0,0.3-0.2,0.5-0.5,0.5
		c-0.3,0-0.5-0.2-0.5-0.4c0-0.9,1.6-1.1,2.2-1.1c1.3,0,1.9,0.3,1.9,1.7v2c0,0.3,0,1.2,0.4,1.2c0.2,0,0.4-0.2,0.5-0.4l0.2,0.1
		c-0.2,0.4-0.6,0.8-1.1,0.8c-0.5,0-0.9-0.4-1-0.8c-0.6,0.5-1.2,0.8-2,0.8c-0.6,0-1.2-0.4-1.2-1.1c0-1,1.1-1.4,1.9-1.8L139.7,79.5z
		 M139.8,79.8c-0.7,0.3-2.1,0.8-2.1,1.8c0,0.4,0.3,0.9,0.8,0.9c0.5,0,1-0.4,1.3-0.7V79.8z"/>
	<path d="M144,81.3c0,0.8-0.1,1.1,0.8,1.2v0.2c-0.5,0-0.9,0-1.4,0c-0.4,0-0.9,0-1.3,0v-0.2c0.9-0.1,0.8-0.3,0.8-1.1v-4.6
		c0-0.3,0-1-0.1-1.3c-0.1-0.3-0.5-0.3-0.8-0.3V75l1.9-0.4V81.3z"/>
</g>
<path d="M148.8,80.4h0.3c0.2,1.2,0.9,2.2,2.2,2.2c0.9,0,1.7-0.5,1.7-1.5c0-1.1-0.9-1.5-1.8-1.9c-1.1-0.4-2.2-1-2.2-2.4
	c0-1.4,1.1-2.1,2.3-2.1c0.7,0,1.3,0.2,1.8,0.6l0.3-0.5h0.1l0.1,2.1h-0.3c-0.3-1-0.8-1.9-2-1.9c-0.8,0-1.4,0.5-1.4,1.3
	c0,0.9,0.8,1.3,1.6,1.6c1.2,0.5,2.6,1.1,2.6,2.7c0,1.6-1.4,2.3-2.8,2.3c-0.8,0-1.4-0.2-2.1-0.7l-0.3,0.5h-0.1V80.4z"/>
<path d="M160.5,80.2c0,1.6-1.3,2.7-2.9,2.7c-1.5,0-2.8-1.2-2.8-2.8c0-1.5,1.4-2.6,2.8-2.6C159.1,77.5,160.5,78.7,160.5,80.2z
	 M155.9,80.2c0,1.1,0.3,2.4,1.7,2.4c1.3,0,1.6-1.3,1.6-2.4c0-1.1-0.3-2.5-1.7-2.5C156.3,77.8,155.9,79.2,155.9,80.2z"/>
<path d="M165.9,82c-0.5,0.6-1.3,0.9-2.1,0.9c-1.5,0-2.6-1.1-2.6-2.5c0-1.7,1.3-2.9,2.9-2.9c0.5,0,1.5,0.1,1.5,0.8
	c0,0.2-0.2,0.4-0.4,0.4c-0.3,0-0.4-0.2-0.5-0.5c-0.1-0.4-0.2-0.5-0.7-0.5c-1.3,0-1.7,1.3-1.7,2.4c0,1.1,0.4,2.3,1.7,2.3
	c0.6,0,1.1-0.3,1.5-0.8L165.9,82z"/>
<path d="M168.3,77.5v3.8c0,0.8-0.1,1.1,0.8,1.2v0.2c-0.4,0-0.8,0-1.3,0c-0.5,0-0.9,0-1.4,0v-0.2c0.9-0.1,0.8-0.3,0.8-1.1v-1.7
	c0-0.2,0-1.1,0-1.3c-0.1-0.3-0.6-0.3-0.8-0.3v-0.2L168.3,77.5z M167,75.4c0-0.4,0.3-0.6,0.6-0.6c0.4,0,0.6,0.3,0.6,0.6
	c0,0.3-0.3,0.6-0.6,0.6C167.3,76,167,75.8,167,75.4z"/>
<path d="M174.9,81.9c-0.6,0.7-1.2,1-2.1,1c-1.5,0-2.7-1-2.7-2.6c0-1.5,1.1-2.8,2.7-2.8c1.2,0,2.3,0.7,2.3,1.9c0,0.2-0.2,0.1-0.3,0.1
	h-3.4l0,0.6c0,1.1,0.6,2.4,1.9,2.4c0.6,0,1.1-0.4,1.5-0.9L174.9,81.9z M173.3,79.2c0.2,0,0.6,0.1,0.6-0.2c0-0.7-0.4-1.2-1.2-1.2
	c-0.9,0-1.2,0.7-1.4,1.5H173.3z"/>
<path d="M175.7,78v-0.2c0.6-0.3,1.2-0.8,1.4-1.5h0.2v1.4h1.4V78h-1.4v3.4c0,0.5,0.1,1.1,0.7,1.1c0.4,0,0.6-0.2,0.9-0.5l0.2,0.2
	c-0.2,0.6-0.8,0.8-1.4,0.8c-0.9,0-1.4-0.3-1.4-1.2V78H175.7z"/>
<path d="M179.5,78.8c-0.1-0.2-0.2-0.5-0.3-0.7c-0.1-0.1-0.4-0.3-0.5-0.3v-0.2c0.4,0,0.8,0,1.2,0c0.5,0,0.9,0,1.3,0v0.2
	c-0.2,0.1-0.7,0-0.7,0.4c0,0.3,0.4,1.1,0.5,1.4l0.8,1.8l0.9-2.1c0.1-0.3,0.3-0.8,0.3-1.1c0-0.3-0.4-0.4-0.7-0.4v-0.2
	c0.3,0,0.6,0,0.9,0c0.3,0,0.5,0,0.8,0v0.2c-0.5,0-0.5,0.4-0.7,0.8l-0.2,0.3l-2.5,5.7c-0.2,0.4-0.5,1.3-1,1.3c-0.2,0-0.4-0.1-0.4-0.3
	c0-0.5,0.7-0.5,0.9-0.9c0.2-0.3,0.4-0.8,0.5-1.1l0.5-1L179.5,78.8z"/>
<g>
	<path d="M19,56.4h-0.8c-0.2-3.1-1.3-4-4-4c-1.1,0-2.8-0.2-2.8,0.9v15.2c0,2.4,0.4,3.3,3.2,3.4v0.7c-1.6,0-3.2-0.1-4.8-0.1
		c-1.5,0-3,0.1-4.6,0.1v-0.7c2.8-0.1,3.2-1,3.2-3.4V53.3c0-1-1.3-0.9-2.4-0.9c-2.9,0-4.3,0.2-4.4,4H1v-5h17.8L19,56.4z"/>
	<path d="M23.1,61.2L23.1,61.2c1-1.7,2.7-2.8,4.5-2.8c2.7,0,4.3,1.4,4.3,4.5v5.8c0,2.1-0.3,3.1,2,3.2v0.6c-1.1,0-2.2-0.1-3.4-0.1
		c-1,0-2.1,0.1-3.1,0.1v-0.6c2.2-0.2,2-0.9,2-3v-4.7c0-2.1-0.2-4.7-2.6-4.7c-1.2,0-2.7,1-3.2,2.2c-0.5,1-0.5,2.3-0.5,3.5v3.5
		c0,2.1-0.2,3.1,2,3.2v0.6c-1.1,0-2.1-0.1-3.2-0.1c-1.1,0-2.2,0.1-3.3,0.1v-0.6c2.2-0.2,2-0.9,2-3V56.6c0-0.8,0-2.8-0.3-3.4
		c-0.3-0.8-1.2-0.7-1.9-0.8v-0.6l4.6-1V61.2z"/>
	<path d="M45.3,70.2c-1.4,1.9-3,2.7-5.2,2.7c-3.6,0-6.5-2.8-6.5-6.9c0-4,2.7-7.6,6.5-7.6c2.8,0,5.5,1.8,5.5,5.2
		c0,0.4-0.4,0.3-0.7,0.3h-8.3l-0.1,1.5c0,3,1.4,6.4,4.5,6.4c1.5,0,2.8-1.1,3.6-2.4L45.3,70.2z M41.5,63.1c0.5,0,1.4,0.2,1.4-0.6
		c0-2-1-3.3-2.8-3.3c-2.2,0-3,1.8-3.4,3.9H41.5z"/>
</g>
<g>
	<path d="M69.6,56.4h-0.7c-0.3-1.4-0.6-2.7-1.9-3.3c-1.2-0.6-2.9-0.6-4.3-0.6c-2.3,0-2.2-0.2-2.3,1.8v7.2c4,0.2,4.5-1.6,4.7-3.9h0.7
		c0,1.4-0.1,2.9-0.1,4.4c0.1,1.3,0.1,2.7,0.1,4h-0.7c-0.4-3.4-1.9-3.4-4.7-3.4v4c0,1,0,3.4,0.3,4.2c0.4,1.3,1.9,1,2.9,1.1v0.7
		c-1.5,0-3-0.1-4.5-0.1c-1.5,0-2.9,0.1-4.5,0.1v-0.7c0.9,0,2.1,0,2.5-1.1c0.3-0.9,0.3-3.2,0.3-4.3v-9c0-1,0-3.4-0.3-4.3
		c-0.4-1.1-1.6-1.1-2.5-1.1v-0.7c1.8,0,3.5,0.1,5.2,0.1c3.1,0,6.2-0.1,9.3-0.1L69.6,56.4z"/>
	<path d="M80.5,65.6c0,4.3-3.2,7.3-7,7.3c-3.8,0-6.9-3.2-6.9-7.4c0-4.1,3.4-7.1,6.9-7.1C77.1,58.4,80.5,61.5,80.5,65.6z M69.5,65.6
		c0,3,0.8,6.6,4.2,6.6c3.2,0,3.9-3.5,3.9-6.4c0-3.1-0.8-6.7-4.2-6.7C70.3,59.2,69.5,62.8,69.5,65.6z"/>
	<path d="M84.3,67.4c0,1.9,0.1,4.5,2.4,4.5c2.3,0,4-2.3,4-4.7v-4.3c0-2.4,0.2-3.2-2.2-3.6v-0.6c0.8,0.1,1.6,0.1,2.4,0.2
		c0.8-0.1,1.5-0.1,2.3-0.2V69c0,0.9,0,2.1,1.1,2.1c0.3,0,0.7-0.1,1.1-0.1v0.7l-4,1.2l-0.6-3c-1,1.8-2.9,3-4.8,3c-2.9,0-4-1.8-4-4.6
		v-5.5c0-2.4,0.2-3.2-2.2-3.6v-0.6c0.8,0,1.6,0.1,2.4,0.1c0.8,0,1.5-0.1,2.3-0.1V67.4z"/>
	<path d="M109,68.7c0,2.1-0.2,3.1,2,3.2v0.6c-1,0-2.1-0.1-3.2-0.1c-1.1,0-2.2,0.1-3.4,0.1v-0.6c2.2-0.2,2-0.9,2-3v-4.1
		c0-2.2,0.1-5.3-2.7-5.3c-2.3,0-3.7,2-3.7,4.3v5c0,2.1-0.3,3.1,2,3.2v0.6c-1,0-2.1-0.1-3.2-0.1c-1.1,0-2.2,0.1-3.4,0.1v-0.6
		c2.2-0.2,2-0.9,2-3v-3.9c0-0.9,0-3.1-0.1-3.9c-0.2-1.2-1-1-1.9-1v-0.6c1.5-0.2,2.6-0.7,4-1l0.4,2.9h0.1c1-2,2.6-2.9,4.6-2.9
		c2.7,0,4.3,1.4,4.3,4.4V68.7z"/>
	<path d="M122.4,72.9c-0.3-0.7-0.5-1.6-0.6-2.4c-1.2,1.7-2.5,2.4-4.5,2.4c-3.6,0-6.2-3.1-6.2-7.1c0-3.9,2.5-7.4,6.2-7.4
		c1.6,0,3.1,0.6,4.1,2v-5.1c0-1.9-0.1-2.9-2.2-3v-0.6l4.6-1v16.2c0,0.9,0,2.5,0.3,3.3c0.4,1.1,1.2,1.1,2.1,1.1v0.6L122.4,72.9z
		 M121.4,62.7c0-2-1.8-3.3-3.4-3.3c-3.1,0-4,3.6-4,6.4c0,2.9,0.8,6.2,4,6.2c2.6,0,3.4-2.3,3.4-4.8V62.7z"/>
	<path d="M134.3,63.8c0.3-0.2,0.2-0.6,0.2-0.9c0-2.2-0.2-3.7-2.5-3.7c-1.4,0-2.6,0.1-2.7,1.8c-0.1,0.7-0.4,1.4-1.2,1.4
		c-0.6,0-1.1-0.4-1.1-1.2c0-2.4,3.8-2.8,5.3-2.8c3.2,0,4.7,0.9,4.7,4.6v5.3c0,0.8-0.1,3.2,1,3.2c0.6,0,0.9-0.6,1.2-1l0.5,0.3
		c-0.5,1.1-1.5,2.1-2.6,2.1c-1.2,0-2.2-1-2.5-2.3c-1.4,1.2-3,2.3-4.8,2.3c-1.5,0-3-1-3-2.8c0-2.7,2.7-3.8,4.6-4.8L134.3,63.8z
		 M134.6,64.6c-1.7,0.9-5,2.2-5,4.7c0,1.2,0.7,2.3,1.9,2.3c1.1,0,2.4-1,3.2-1.8V64.6z"/>
	<path d="M139.2,59.7v-0.6c1.4-0.9,2.9-2.2,3.5-4h0.4v3.7h3.3v0.9h-3.3v9.1c0,1.4,0.3,2.9,1.8,2.9c1,0,1.5-0.6,2.1-1.4l0.5,0.4
		c-0.5,1.5-2,2.1-3.4,2.1c-2.1,0-3.5-0.9-3.5-3.3v-9.8H139.2z"/>
	<path d="M152.9,58.4v10.3c0.1,2.1-0.3,3.1,2,3.2v0.6c-1,0-2.1-0.1-3.1-0.1c-1.1,0-2.3,0.1-3.4,0.1v-0.6c2.1-0.2,2-0.9,2-3v-4.6
		c0-0.6,0-3.1-0.1-3.6c-0.2-0.8-1.4-0.7-2-0.7v-0.6L152.9,58.4z M149.8,52.7c0-1,0.7-1.7,1.6-1.7s1.5,0.8,1.5,1.7
		c0,0.9-0.7,1.7-1.5,1.7C150.5,54.4,149.8,53.7,149.8,52.7z"/>
	<path d="M168.7,65.6c0,4.3-3.2,7.3-7,7.3c-3.8,0-6.9-3.2-6.9-7.4c0-4.1,3.4-7.1,6.9-7.1C165.3,58.4,168.7,61.5,168.7,65.6z
		 M157.7,65.6c0,3,0.8,6.6,4.2,6.6c3.2,0,3.9-3.5,3.9-6.4c0-3.1-0.8-6.7-4.2-6.7C158.5,59.2,157.7,62.8,157.7,65.6z"/>
	<path d="M181.9,68.7c0,2.1-0.2,3.1,2,3.2v0.6c-1,0-2.1-0.1-3.2-0.1c-1.1,0-2.2,0.1-3.4,0.1v-0.6c2.2-0.2,2-0.9,2-3v-4.1
		c0-2.2,0.1-5.3-2.7-5.3c-2.3,0-3.7,2-3.7,4.3v5c0,2.1-0.3,3.1,2,3.2v0.6c-1,0-2.1-0.1-3.2-0.1c-1.1,0-2.2,0.1-3.4,0.1v-0.6
		c2.2-0.2,2-0.9,2-3v-3.9c0-0.9,0-3.1-0.1-3.9c-0.2-1.2-1-1-1.9-1v-0.6c1.5-0.2,2.6-0.7,4-1l0.4,2.9h0.1c1-2,2.6-2.9,4.6-2.9
		c2.7,0,4.3,1.4,4.3,4.4V68.7z"/>
</g>
</svg>
