<?xml version="1.0" encoding="utf-8"?>
<!-- Generator: Adobe Illustrator 18.0.0, SVG Export Plug-In . SVG Version: 6.00 Build 0)  -->
<!DOCTYPE svg PUBLIC "-//W3C//DTD SVG 1.1//EN" "http://www.w3.org/Graphics/SVG/1.1/DTD/svg11.dtd">
<svg version="1.1" id="Layer_1" xmlns="http://www.w3.org/2000/svg" xmlns:xlink="http://www.w3.org/1999/xlink" x="0px" y="0px"
	 width="302px" height="281px" viewBox="-25 -92.5 302 281" enable-background="new -25 -92.5 302 281" xml:space="preserve">
<g>
	<g>
		<polygon fill="#E8EFED" points="206.8,-77.8 198.5,-92 53.1,-92 44.9,-77.8 		"/>
	</g>
	<polygon fill="#E8EFED" points="117.4,-33.9 56.9,-33.9 51.3,-43.3 25,-43.3 16.7,-29.4 117.4,-29.4 	"/>
	<polygon fill="#E8EFED" points="138.8,-29.4 234.9,-29.4 226.7,-43.3 201.5,-43.3 196.2,-33.9 138.8,-33.9 	"/>
	<polygon fill="#E8EFED" points="117.4,-9.9 69.3,-9.9 63.6,-19.3 11.4,-19.3 3.2,-5.5 117.4,-5.5 	"/>
	<polygon fill="#E8EFED" points="138.8,-5.5 248.8,-5.5 240.6,-19.3 187.2,-19.3 182,-9.9 138.8,-9.9 	"/>
	<polygon fill="#E8EFED" points="117.4,14 31.3,14 25.3,4.7 -2.8,4.7 -11.1,18.5 117.4,18.5 	"/>
	<polygon fill="#E8EFED" points="138.8,18.5 263.1,18.5 254.8,4.7 228.9,4.7 223.7,14 138.8,14 	"/>
	<polygon fill="#E8EFED" points="117.4,38 39.6,38 33.6,28.6 -16.7,28.6 -25,42.5 117.4,42.5 	"/>
	<polygon fill="#E8EFED" points="138.8,42.5 277,42.5 268.7,28.6 220.3,28.6 215,38 138.8,38 	"/>
	<g>
		<polygon fill="#E8EFED" points="206.8,174.8 198.5,189 53.1,189 44.9,174.8 		"/>
	</g>
	<polygon fill="#E8EFED" points="117.4,63.9 48.2,63.9 44.1,54.5 -22.7,54.5 -13.7,68.4 117.4,68.4 	"/>
	<polygon fill="#E8EFED" points="138.8,68.4 269.5,68.4 277,54.5 211.3,54.5 206,63.9 138.8,63.9 	"/>
	<polygon fill="#E8EFED" points="117.4,87.8 56.5,87.8 52.4,78.5 -9.2,78.5 -0.6,92.3 117.4,92.3 	"/>
	<polygon fill="#E8EFED" points="138.8,92.3 256,92.3 263.5,78.5 203,78.5 197.7,87.8 138.8,87.8 	"/>
	<polygon fill="#E8EFED" points="117.4,111.8 65.1,111.8 61,102.5 4.3,102.5 12.9,116.3 117.4,116.3 	"/>
	<polygon fill="#E8EFED" points="138.8,116.3 242.1,116.3 249.6,102.5 194.7,102.5 189.5,111.8 138.8,111.8 	"/>
	<polygon fill="#E8EFED" points="180.8,135.8 74.5,135.8 70.4,126.4 17.1,126.4 26.1,140.3 227,140.3 234.9,126.4 186.1,126.4 	"/>
	<polygon fill="#E8EFED" points="172.6,159.8 82.8,159.8 78.7,150.4 30.6,150.4 39.6,164.3 213.1,164.3 220.7,150.4 177.8,150.4 	
		"/>
	<path fill="#E8EFED" d="M138.8-42.9c0,0,38.3-1.5,36.1,12.7c-1.9,10.1-10.1,12.4-10.1,12.4s-22.5,1.9-25.9-3.4V-42.9z M151.5-35.8
		l4.5,2.6c0,0,5.3,2.6,6.4-0.7c1.1-3-10.9-2.2-10.9-2.2L151.5-35.8z"/>
	<path fill="#E8EFED" d="M138.8-53.4v-4.9c0-1.1-1.1-2.2-2.3-2.2H120c-1.5,0-2.3,1.1-2.3,2.2v4.9h-0.4H31l8.3-13.9h173.2l8.3,13.9
		h-81.5H138.8z"/>
	<path fill="#E8EFED" d="M137.3,69.1l-18.8-10.9l-0.8-0.7C92.9,43.3,92.9,39.1,92.9,39.1c-3-14.6,16.9-19.5,16.9-19.5
		c3.4-1.5,4.9-1.9,4.9-1.9l2.6-1.5v12L137.3,41l1.5,0.7l19.5,12c0,0,11.3,10.1,1.1,18.4L138.8,83V69.5L137.3,69.1z"/>
	<path fill="#E8EFED" d="M135.4,135.8l-18,10.1c0,0-15,4.5-19.9-1.9l-3.8-3.7c0,0,18.8-12.7,23.7-15.4v10.9h17.3H135.4z"/>
	<path fill="#E8EFED" d="M138.8,133.9v-13.5l-0.8-0.4l-19.9-12l-0.8-0.4C91.8,95.3,92.6,89.3,92.6,89.3c-3-14.6,18.8-20.2,18.8-20.2
		c1.9-0.4,3-1.1,3-1.1l3-1.9v13.1l0.8,0.4L137.6,92l0.8,0.4l19.5,12.4c0,0,10.1,9.4-0.4,18l-18.8,10.9V133.9z"/>
	<path fill="#E8EFED" d="M137.3-10.7l-18.8-12l-1.1-0.4v-12.4l-4.9,2.2c0,0-6.8,3-9.4,4.1c0,0-12.8,3.7-10.5,16.5
		c0,0-0.4,3.7,24.8,18l1.1,0.7l19.2,11.6l0.8,0.7v13.1l20.7-10.9c10.1-8.6-1.1-18.4-1.1-18.4L138.4-9.9L137.3-10.7z"/>
</g>
</svg>
